<?xml version="1.0" encoding="UTF-8" standalone="no"?>
<!-- Created with Inkscape (http://www.inkscape.org/) -->

<svg
   xmlns:dc="http://purl.org/dc/elements/1.1/"
   xmlns:cc="http://creativecommons.org/ns#"
   xmlns:rdf="http://www.w3.org/1999/02/22-rdf-syntax-ns#"
   xmlns:svg="http://www.w3.org/2000/svg"
   xmlns="http://www.w3.org/2000/svg"
   xmlns:sodipodi="http://sodipodi.sourceforge.net/DTD/sodipodi-0.dtd"
   xmlns:inkscape="http://www.inkscape.org/namespaces/inkscape"
   width="270"
   height="70"
   viewBox="0 0 71.437502 18.520833"
   version="1.1"
   id="svg8"
   inkscape:version="0.92.2 (5c3e80d, 2017-08-06)"
   sodipodi:docname="topkamera-logo-SVG.svg">
  <defs
     id="defs2" />
  <sodipodi:namedview
     id="base"
     pagecolor="#ffffff"
     bordercolor="#666666"
     borderopacity="1.0"
     inkscape:pageopacity="0.0"
     inkscape:pageshadow="2"
     inkscape:zoom="6.7856062"
     inkscape:cx="136.75797"
     inkscape:cy="25.690732"
     inkscape:document-units="mm"
     inkscape:current-layer="layer1"
     showgrid="false"
     units="px"
     inkscape:snap-object-midpoints="false"
     inkscape:snap-center="false"
     inkscape:window-width="2736"
     inkscape:window-height="1714"
     inkscape:window-x="-12"
     inkscape:window-y="-12"
     inkscape:window-maximized="1" />
  <metadata
     id="metadata5">
    <rdf:RDF>
      <cc:Work
         rdf:about="">
        <dc:format>image/svg+xml</dc:format>
        <dc:type
           rdf:resource="http://purl.org/dc/dcmitype/StillImage" />
        <dc:title></dc:title>
      </cc:Work>
    </rdf:RDF>
  </metadata>
  <g
     inkscape:label="Layer 1"
     inkscape:groupmode="layer"
     id="layer1"
     transform="translate(0,-278.47916)">
    <g
       transform="matrix(0.03163506,0,0,0.03033079,1.0834209,279.12315)"
       inkscape:label="topkamera-logo-24-10-17-v2"
       id="g3707">
      <g
         id="g3709">
        <path
           inkscape:connector-curvature="0"
           id="path3711"
           style="fill:#293744;fill-opacity:1;fill-rule:nonzero;stroke:none"
           d="M 751.531,29.969 V 538.195 H 1076.52 V 29.969 Z m 45.746,109.355 c 4.493,0 11.231,0.434 20.211,1.301 11.106,1.156 20.211,1.734 27.321,1.734 4.367,0 16.781,-0.652 37.242,-1.949 5.988,-0.289 10.601,-0.437 13.847,-0.437 4.739,0 7.11,1.953 7.11,5.851 0,4.047 -2.434,6.356 -7.297,6.934 -8.359,0.867 -13.785,3.18 -16.281,6.933 -2.496,3.754 -3.867,9.606 -4.117,17.551 -0.25,7.801 -0.5,41.242 -0.75,100.321 13.722,-13 29.507,-31.344 47.347,-55.036 17.84,-23.691 28.129,-37.918 30.875,-42.683 2.871,-4.766 4.305,-8.598 4.305,-11.485 0,-7.367 -5.801,-12.421 -17.402,-15.168 -4.993,-1.156 -7.489,-3.539 -7.489,-7.148 0,-4.336 2.371,-6.504 7.114,-6.504 1.621,0 3.742,0.149 6.363,0.434 9.605,1.59 23.39,2.386 41.355,2.386 4.617,0 11.914,-0.433 21.895,-1.3 9.48,-0.723 15.844,-1.086 19.086,-1.086 5.367,0 8.047,2.168 8.047,6.504 0,3.753 -2.555,5.992 -7.672,6.714 -7.11,0.868 -14.285,3.18 -21.52,6.934 -7.234,3.609 -15.906,10.184 -26.012,19.719 -10.105,9.39 -20.585,20.871 -31.437,34.449 l -36.867,47.02 12.539,-0.434 c 14.348,0 26.324,3.539 35.93,10.617 9.605,7.078 16.406,15.672 20.398,25.785 4.117,10.11 8.793,27.879 14.035,53.301 3.992,18.922 7.297,32.141 9.918,39.652 2.617,7.512 6.672,14.012 12.164,19.5 5.613,5.344 11.727,8.305 18.336,8.883 5.617,0.578 8.422,2.383 8.422,5.418 0,4.332 -2.68,6.5 -8.047,6.5 -1.496,0 -3.68,-0.144 -6.551,-0.433 -10.851,-1.446 -22.078,-2.168 -33.679,-2.168 -12.352,0 -24.641,0.867 -36.868,2.601 -4.242,-7.656 -7.484,-15.816 -9.73,-24.484 -2.121,-8.668 -5.43,-29.539 -9.918,-62.621 -3.371,-24.41 -8.047,-40.805 -14.035,-49.184 -5.863,-8.519 -12.477,-12.785 -19.836,-12.785 -8.859,0 -19.215,6.648 -31.066,19.937 l -0.372,55.903 c 0,25.711 1.247,41.746 3.743,48.101 2.496,6.356 9.293,10.328 20.394,11.914 5.863,0.868 8.797,2.747 8.797,5.637 0,5.055 -2.621,7.582 -7.859,7.582 -2.496,0 -6.176,-0.289 -11.039,-0.867 -12.602,-1.59 -27.575,-2.383 -44.914,-2.383 -11.227,0 -24.079,0.938 -38.547,2.817 -4.993,0.578 -8.61,0.867 -10.856,0.867 -4.242,0 -6.363,-2.383 -6.363,-7.153 0,-2.308 0.687,-3.898 2.058,-4.765 1.372,-0.867 4.555,-1.59 9.543,-2.168 5.989,-0.867 10.293,-2.672 12.915,-5.414 2.742,-2.891 4.675,-7.656 5.8,-14.301 1.246,-6.789 2.184,-23.039 2.809,-48.75 0.746,-25.715 1.121,-54.172 1.121,-85.371 0,-31.492 -0.375,-53.738 -1.121,-66.738 -0.625,-13 -1.996,-22.536 -4.117,-28.602 -2.121,-6.211 -4.492,-10.109 -7.114,-11.699 -2.492,-1.731 -7.671,-3.031 -15.531,-3.899 -3.992,-0.289 -5.988,-2.312 -5.988,-6.066 0,-4.48 3.117,-6.719 9.355,-6.719 z m -463.617,3.629 c -7.211,0 -16.43,0.289 -27.664,0.867 -31.476,1.59 -60.316,2.383 -86.523,2.383 -34.528,0 -87.778,-1.012 -159.743,-3.035 -2.218,11.703 -4.23,26.441 -6.031,44.211 -1.664,17.629 -2.496,27.09 -2.496,28.391 0,4.335 2.356,6.5 7.07,6.5 3.051,0 5.754,-2.743 8.114,-8.235 5.961,-13.871 13.656,-25.137 23.086,-33.805 9.429,-8.816 19.207,-14.16 29.328,-16.039 10.262,-2.023 26.832,-3.035 49.711,-3.035 3.605,38.578 5.41,88.567 5.41,149.969 0,38.863 -0.766,64.148 -2.289,75.852 -1.387,11.558 -5.203,20.011 -11.442,25.355 -6.238,5.348 -15.531,8.02 -27.871,8.02 -5.269,0 -7.902,2.093 -7.902,6.285 0,2.886 1.594,4.695 4.785,5.418 6.516,0.289 10.813,0.433 12.895,0.433 l 26.207,-1.086 c 7.211,-0.289 27.593,-0.433 61.152,-0.433 l 43.055,1.086 5.824,0.215 c 4.715,0 7.07,-2.024 7.07,-6.067 0,-3.613 -2.703,-5.637 -8.113,-6.066 -15.945,-1.157 -26.066,-3.254 -30.367,-6.289 -4.297,-3.032 -7.348,-7.801 -9.153,-14.301 -1.8,-6.5 -3.328,-25.5 -4.574,-56.996 -1.25,-31.641 -1.871,-64.438 -1.871,-98.391 0,-33.23 1.106,-60.898 3.324,-83.004 25.102,0 43.059,1.375 53.871,4.121 10.957,2.743 20.524,8.305 28.707,16.684 8.317,8.379 15.114,18.422 20.383,30.125 3.188,6.934 6.516,10.402 9.985,10.402 4.574,0 6.863,-2.816 6.863,-8.453 l -3.121,-34.238 c -1.524,-18.496 -2.774,-30.703 -3.742,-36.629 -6.52,-0.145 -11.164,-0.215 -13.938,-0.215 z m 264.254,103.5 c -20.402,1.086 -42.109,1.625 -65.113,1.625 -5.59,0 -8.383,1.965 -8.383,5.891 0,3.25 2.469,5.144 7.41,5.687 6.496,0.676 11.242,2.91 14.231,6.703 2.988,3.793 4.484,12.121 4.484,24.985 l 1.168,66.219 c 0,80.976 -1.168,128.371 -3.508,142.183 -2.34,13.949 -9.422,21.535 -21.25,22.754 -7.277,0.676 -10.918,2.637 -10.918,5.887 0,3.523 3.379,5.281 10.137,5.281 1.43,0 4.808,-0.203 10.141,-0.609 10.914,-0.946 20.207,-1.418 27.875,-1.418 11.308,0 24.562,0.539 39.769,1.621 7.277,0.406 12.672,0.609 16.18,0.609 6.109,0 9.164,-1.828 9.164,-5.484 0,-3.52 -2.274,-5.348 -6.824,-5.485 -12.477,-0.539 -20.145,-5.347 -23.004,-14.422 -2.86,-8.933 -4.289,-40.488 -4.289,-94.652 7.019,4.738 14.234,8.328 21.64,10.766 7.41,2.301 15.078,3.449 23.004,3.449 22.223,0 41.461,-8.934 57.703,-26.809 16.379,-18.011 24.567,-39.269 24.567,-63.781 0,-26.137 -8.254,-47.531 -24.758,-64.187 -16.379,-16.793 -33.664,-25.188 -51.86,-25.188 -8.835,0 -17.218,2.102 -25.148,6.297 -7.926,4.063 -15.398,10.223 -22.418,18.484 0.262,-3.25 0.391,-5.281 0.391,-6.093 z m 580.242,0 c -18.843,0 -35.09,3.25 -48.734,9.75 -13.52,6.367 -20.277,16.047 -20.277,29.047 0,6.094 1.882,10.766 5.652,14.016 3.769,3.25 8.32,4.875 13.648,4.875 12.996,0 20.989,-7.719 23.981,-23.157 1.429,-7.718 3.508,-13.339 6.238,-16.859 2.727,-3.387 7.344,-5.078 13.84,-5.078 7.539,0 13.449,2.707 17.738,8.125 4.289,5.281 6.434,12.391 6.434,21.328 0,8.125 -1.43,14.762 -4.289,19.906 -2.86,5.012 -6.43,8.867 -10.719,11.578 -4.16,2.571 -12.477,6.161 -24.953,10.766 -14.817,5.551 -25.477,10.359 -31.973,14.422 -6.367,3.926 -11.762,9.547 -16.179,16.859 -4.29,7.176 -6.434,15.371 -6.434,24.578 0,11.918 3.574,22.075 10.723,30.469 7.277,8.262 17.543,12.391 30.8,12.391 8.317,0 16.571,-1.965 24.758,-5.891 8.188,-4.062 16.309,-10.09 24.367,-18.078 0.649,8.668 2.602,14.828 5.848,18.484 3.383,3.52 9.555,5.282 18.523,5.282 8.965,0 18.973,-1.086 30.02,-3.25 11.18,-2.168 17.871,-3.926 20.082,-5.282 2.207,-1.488 3.313,-3.25 3.313,-5.281 0,-3.117 -2.665,-4.672 -7.993,-4.672 -0.91,0 -2.664,0.133 -5.261,0.407 -1.301,0.132 -2.344,0.203 -3.121,0.203 -5.329,0 -8.836,-3.59 -10.528,-10.766 -1.558,-7.176 -2.34,-23.43 -2.34,-48.75 l 0.391,-48.141 c 0,-14.355 -1.43,-24.918 -4.289,-31.687 -2.859,-6.77 -9.422,-12.731 -19.692,-17.875 -10.136,-5.145 -23.328,-7.719 -39.574,-7.719 z m 351.524,0 c -10.395,0 -20.535,2.168 -30.41,6.5 -9.879,4.199 -19.497,10.563 -28.852,19.094 -9.23,-10.969 -17.742,-17.942 -25.539,-20.922 -7.797,-2.98 -15.207,-4.469 -22.227,-4.469 -9.875,0 -19.625,2.641 -29.242,7.922 -9.484,5.145 -18.906,13 -28.265,23.559 -0.129,-5.684 -0.196,-9.68 -0.196,-11.981 0,-9.074 -0.781,-15.574 -2.34,-19.5 -9.875,0 -21.574,0.746 -35.089,2.235 -13.516,1.355 -23.719,2.234 -30.61,2.64 -5.328,0.27 -7.992,2.168 -7.992,5.688 0,3.519 2.664,5.347 7.992,5.484 6.5,0.137 11.57,1.828 15.207,5.078 3.77,3.25 5.914,7.922 6.434,14.016 0.652,6.094 0.976,21.191 0.976,45.297 0,30.875 -0.457,51.933 -1.363,63.172 -0.91,11.105 -2.277,17.875 -4.098,20.312 -1.816,2.438 -6.628,3.86 -14.425,4.266 -4.809,0.269 -7.211,2.234 -7.211,5.89 0,3.926 2.144,5.891 6.433,5.891 1.559,0 3.899,-0.137 7.016,-0.406 7.93,-0.949 19.172,-1.422 33.726,-1.422 16.375,0 27.942,0.406 34.704,1.219 2.597,0.406 4.418,0.609 5.457,0.609 5.328,0 7.992,-2.168 7.992,-6.5 0,-3.25 -2.469,-5.012 -7.41,-5.281 -6.625,-0.406 -11.176,-2.778 -13.645,-7.11 -2.34,-4.468 -3.508,-16.519 -3.508,-36.156 0,-41.844 3.832,-70.078 11.5,-84.703 7.668,-14.625 18.133,-21.937 31.387,-21.937 7.672,0 13.191,3.792 16.57,11.375 3.379,7.449 5.071,21.125 5.071,41.031 0,48.344 -0.973,76.578 -2.926,84.703 -1.949,7.988 -6.625,12.254 -14.035,12.797 -5.59,0.406 -8.383,2.371 -8.383,5.89 0,3.926 2.859,5.891 8.578,5.891 1.559,0 3.836,-0.137 6.824,-0.406 11.567,-0.949 21.574,-1.422 30.02,-1.422 4.941,0 13.324,0.336 25.148,1.016 8.578,0.539 13.582,0.812 15.012,0.812 6.238,0 9.359,-2.102 9.359,-6.297 0,-2.98 -2.468,-4.742 -7.41,-5.281 -8.316,-0.949 -13.644,-3.184 -15.984,-6.703 -2.34,-3.524 -3.508,-13.61 -3.508,-30.266 0,-39.269 2.012,-69.402 6.043,-90.39 6.105,-8.938 12.019,-15.571 17.738,-19.907 5.848,-4.468 11.571,-6.703 17.156,-6.703 6.239,0 11.438,2.371 15.594,7.11 4.16,4.605 6.824,11.308 7.996,20.109 1.168,8.801 1.754,25.051 1.754,48.75 0,25.863 -0.453,44.281 -1.363,55.25 -0.91,10.832 -2.211,17.062 -3.902,18.687 -1.688,1.625 -6.239,2.977 -13.645,4.063 -4.289,0.539 -6.434,2.504 -6.434,5.891 0,3.789 3.25,5.687 9.747,5.687 0.91,0 4.418,-0.203 10.527,-0.609 9.879,-0.68 18.328,-1.016 25.344,-1.016 12.867,0 24.757,0.473 35.675,1.422 1.692,0.133 2.993,0.203 3.899,0.203 5.332,0 7.992,-2.102 7.992,-6.297 0,-2.844 -2.273,-4.672 -6.82,-5.484 -8.059,-1.219 -12.996,-3.25 -14.817,-6.094 -1.82,-2.98 -2.73,-14.152 -2.73,-33.516 l 0.976,-68.656 c 0,-19.906 -4.093,-34.937 -12.281,-45.094 -8.32,-10.019 -21.379,-15.031 -39.187,-15.031 z m 516.386,0 c -18.843,0 -35.089,3.25 -48.734,9.75 -13.516,6.367 -20.273,16.047 -20.273,29.047 0,6.094 1.882,10.766 5.652,14.016 3.769,3.25 8.316,4.875 13.644,4.875 13,0 20.993,-7.719 23.981,-23.157 1.43,-7.718 3.508,-13.339 6.238,-16.859 2.731,-3.387 7.344,-5.078 13.84,-5.078 7.539,0 13.453,2.707 17.742,8.125 4.289,5.281 6.434,12.391 6.434,21.328 0,8.125 -1.43,14.762 -4.289,19.906 -2.86,5.012 -6.434,8.867 -10.723,11.578 -4.16,2.571 -12.476,6.161 -24.953,10.766 -14.816,5.551 -25.473,10.359 -31.973,14.422 -6.367,3.926 -11.761,9.547 -16.179,16.859 -4.289,7.176 -6.434,15.371 -6.434,24.578 0,11.918 3.574,22.075 10.723,30.469 7.277,8.262 17.543,12.391 30.801,12.391 8.316,0 16.57,-1.965 24.757,-5.891 8.188,-4.062 16.313,-10.09 24.371,-18.078 0.649,8.668 2.598,14.828 5.848,18.484 3.379,3.52 9.551,5.282 18.52,5.282 8.968,0 18.976,-1.086 30.023,-3.25 11.176,-2.168 17.867,-3.926 20.078,-5.282 2.211,-1.488 3.317,-3.25 3.317,-5.281 0,-3.117 -2.668,-4.672 -7.997,-4.672 -0.91,0 -2.664,0.133 -5.261,0.407 -1.301,0.132 -2.34,0.203 -3.121,0.203 -5.328,0 -8.836,-3.59 -10.528,-10.766 -1.558,-7.176 -2.34,-23.43 -2.34,-48.75 l 0.391,-48.141 c 0,-14.355 -1.43,-24.918 -4.289,-31.687 -2.859,-6.77 -9.422,-12.731 -19.687,-17.875 -10.137,-5.145 -23.332,-7.719 -39.579,-7.719 z m -178.781,0.203 c -28.722,3.114 -49.062,4.739 -61.019,4.875 -6.496,0.137 -9.746,2.032 -9.746,5.688 0,2.301 0.582,3.859 1.753,4.672 1.297,0.675 4.29,1.285 8.965,1.828 4.551,0.406 8.125,1.761 10.723,4.062 2.73,2.301 4.422,4.942 5.07,7.922 0.649,2.844 1.364,11.918 2.145,27.219 0.781,15.301 1.172,28.098 1.172,38.391 l -0.782,50.781 c 0,9.344 -1.234,15.437 -3.703,18.281 -2.468,2.707 -6.824,4.195 -13.062,4.469 -6.367,0.269 -9.555,2.234 -9.555,5.89 0,4.196 2.731,6.297 8.188,6.297 0.91,0 4.031,-0.203 9.359,-0.609 12.605,-0.949 25.344,-1.422 38.211,-1.422 5.976,0 12.344,0.336 19.101,1.016 7.411,0.812 13.063,1.218 16.965,1.218 7.016,0 10.528,-1.898 10.528,-5.687 0,-4.063 -3.575,-6.094 -10.723,-6.094 -8.187,0 -13.516,-2.031 -15.988,-6.094 -2.34,-4.199 -3.508,-24.781 -3.508,-61.75 0,-29.25 3.055,-48.953 9.16,-59.109 6.109,-10.156 11.57,-15.234 16.379,-15.234 3.508,0 7.602,4.468 12.281,13.406 3.379,6.23 6.563,10.562 9.551,13 2.992,2.437 6.762,3.656 11.309,3.656 6.109,0 11.242,-2.437 15.402,-7.312 4.289,-5.012 6.43,-11.036 6.43,-18.078 0,-8.938 -2.989,-16.383 -8.965,-22.344 -5.852,-5.957 -13.711,-8.938 -23.59,-8.938 -10.398,0 -19.82,3.387 -28.266,10.157 -8.449,6.773 -15.922,16.996 -22.422,30.671 z m -161.164,0.61 c -25.734,0 -47.242,9.343 -64.527,28.031 -17.156,18.551 -25.735,41.574 -25.735,69.062 0,22.883 7.473,42.789 22.418,59.719 15.078,16.789 35.871,25.188 62.387,25.188 12.086,0 23.781,-1.965 35.09,-5.891 11.305,-3.93 20.859,-9.75 28.656,-17.469 7.797,-7.718 11.699,-13.07 11.699,-16.047 0,-3.793 -1.691,-5.687 -5.07,-5.687 -1.301,0 -3.512,1.422 -6.629,4.266 -15.207,14.218 -30.672,21.328 -46.398,21.328 -15.336,0 -27.551,-6.637 -36.649,-19.907 -8.968,-13.406 -13.453,-29.722 -13.453,-48.953 0,-1.761 0.067,-4.605 0.195,-8.531 l 84.61,-1.219 c 13.515,0 21.508,-0.476 23.976,-1.422 2.469,-0.949 3.704,-3.859 3.704,-8.734 0,-15.301 -6.368,-31.418 -19.106,-48.344 -12.605,-16.926 -30.996,-25.39 -55.168,-25.39 z m -1284.68,2.797 c -25.992,0 -48.086,8.531 -66.281,25.593 -18.066,16.926 -27.097,39.137 -27.097,66.625 0,27.082 8.578,48.75 25.73,65 17.156,16.25 38.34,24.375 63.555,24.375 27.422,0 50.039,-9.683 67.843,-29.047 17.805,-19.367 26.707,-41.504 26.707,-66.421 0,-25.325 -8.511,-45.973 -25.539,-61.954 -16.894,-16.113 -38.535,-24.171 -64.918,-24.171 z m 1282.145,9.187 c 8.449,0 15.727,4.266 21.836,12.797 6.109,8.531 9.16,18.348 9.16,29.453 0,6.637 -1.687,11.035 -5.066,13.203 -3.25,2.168 -12.219,3.25 -26.903,3.25 -2.992,0 -14.101,-0.137 -33.336,-0.406 2.86,-38.863 14.297,-58.297 34.309,-58.297 z m -1286.629,3.609 c 13.258,0 23.395,9.004 30.414,27.016 7.149,17.875 10.723,37.918 10.723,60.125 0,20.582 -3.121,37.172 -9.36,49.766 -6.238,12.593 -15.531,18.89 -27.875,18.89 -12.609,0 -22.55,-7.855 -29.828,-23.562 -7.148,-15.844 -10.722,-36.09 -10.722,-60.735 0,-22.613 3.183,-40.152 9.55,-52.609 6.371,-12.594 15.403,-18.891 27.098,-18.891 z m 212.539,3.907 c 11.176,0 20.211,6.839 27.098,20.515 7.019,13.543 10.527,32.637 10.527,57.282 0,23.156 -3.117,40.554 -9.355,52.203 -6.11,11.644 -15.336,17.468 -27.684,17.468 -12.219,0 -21.121,-4.265 -26.711,-12.796 -5.586,-8.668 -8.383,-24.512 -8.383,-47.532 0,-29.113 2.86,-50.918 8.578,-65.406 5.852,-14.488 14.493,-21.734 25.93,-21.734 z m 565.817,57.484 c 0.781,15.57 1.167,26.203 1.167,31.891 0,18.281 -3.246,31.078 -9.746,38.39 -6.496,7.176 -13.515,10.766 -21.054,10.766 -5.586,0 -10.332,-2.438 -14.231,-7.313 -3.769,-5.011 -5.652,-12.254 -5.652,-21.734 0,-8.937 1.816,-15.777 5.457,-20.516 3.641,-4.605 10.851,-9.886 21.641,-15.843 11.828,-6.5 19.3,-11.715 22.418,-15.641 z m 867.91,0 c 0.781,15.57 1.172,26.203 1.172,31.891 0,18.281 -3.25,31.078 -9.75,38.39 -6.497,7.176 -13.516,10.766 -21.051,10.766 -5.59,0 -10.332,-2.438 -14.235,-7.313 -3.765,-5.011 -5.652,-12.254 -5.652,-21.734 0,-8.937 1.82,-15.777 5.461,-20.516 3.637,-4.605 10.852,-9.886 21.637,-15.843 11.828,-6.5 19.3,-11.715 22.418,-15.641 z" />
      </g>
    </g>
  </g>
</svg>
